<mxfile host="Electron" agent="Mozilla/5.0 (X11; Linux x86_64) AppleWebKit/537.36 (KHTML, like Gecko) draw.io/28.1.2 Chrome/138.0.7204.243 Electron/37.4.0 Safari/537.36" version="28.1.2">
  <diagram name="Page-1" id="1CqB2gvCK_K2XZcPbMna">
    <mxGraphModel dx="1947" dy="949" grid="1" gridSize="10" guides="1" tooltips="1" connect="1" arrows="1" fold="1" page="1" pageScale="1" pageWidth="850" pageHeight="1100" math="0" shadow="0">
      <root>
        <mxCell id="0" />
        <mxCell id="1" parent="0" />
        <mxCell id="QejMok9exgGJCMUWyf_u-44" style="edgeStyle=orthogonalEdgeStyle;rounded=0;orthogonalLoop=1;jettySize=auto;html=1;" edge="1" parent="1" source="QejMok9exgGJCMUWyf_u-1" target="QejMok9exgGJCMUWyf_u-23">
          <mxGeometry relative="1" as="geometry" />
        </mxCell>
        <mxCell id="QejMok9exgGJCMUWyf_u-1" value="&lt;font style=&quot;font-size: 20px;&quot;&gt;V&lt;/font&gt;" style="rounded=0;whiteSpace=wrap;html=1;" vertex="1" parent="1">
          <mxGeometry x="290" y="190" width="60" height="40" as="geometry" />
        </mxCell>
        <mxCell id="QejMok9exgGJCMUWyf_u-45" style="edgeStyle=entityRelationEdgeStyle;rounded=0;orthogonalLoop=1;jettySize=auto;html=1;entryX=0;entryY=0.5;entryDx=0;entryDy=0;elbow=vertical;" edge="1" parent="1" source="QejMok9exgGJCMUWyf_u-2" target="QejMok9exgGJCMUWyf_u-25">
          <mxGeometry relative="1" as="geometry" />
        </mxCell>
        <mxCell id="QejMok9exgGJCMUWyf_u-2" value="&lt;font style=&quot;font-size: 20px;&quot;&gt;Z&lt;/font&gt;" style="rounded=0;whiteSpace=wrap;html=1;" vertex="1" parent="1">
          <mxGeometry x="290" y="230" width="60" height="40" as="geometry" />
        </mxCell>
        <mxCell id="QejMok9exgGJCMUWyf_u-47" style="edgeStyle=entityRelationEdgeStyle;rounded=0;orthogonalLoop=1;jettySize=auto;html=1;entryX=0;entryY=0.5;entryDx=0;entryDy=0;" edge="1" parent="1" source="QejMok9exgGJCMUWyf_u-4" target="QejMok9exgGJCMUWyf_u-24">
          <mxGeometry relative="1" as="geometry" />
        </mxCell>
        <mxCell id="QejMok9exgGJCMUWyf_u-4" value="&lt;font style=&quot;font-size: 20px;&quot;&gt;R&lt;/font&gt;" style="rounded=0;whiteSpace=wrap;html=1;" vertex="1" parent="1">
          <mxGeometry x="290" y="270" width="60" height="40" as="geometry" />
        </mxCell>
        <mxCell id="QejMok9exgGJCMUWyf_u-48" style="edgeStyle=orthogonalEdgeStyle;rounded=0;orthogonalLoop=1;jettySize=auto;html=1;entryX=0;entryY=0.5;entryDx=0;entryDy=0;" edge="1" parent="1" source="QejMok9exgGJCMUWyf_u-5" target="QejMok9exgGJCMUWyf_u-26">
          <mxGeometry relative="1" as="geometry" />
        </mxCell>
        <mxCell id="QejMok9exgGJCMUWyf_u-5" value="&lt;font style=&quot;font-size: 20px;&quot;&gt;F&lt;/font&gt;" style="rounded=0;whiteSpace=wrap;html=1;" vertex="1" parent="1">
          <mxGeometry x="290" y="310" width="60" height="40" as="geometry" />
        </mxCell>
        <mxCell id="QejMok9exgGJCMUWyf_u-49" style="edgeStyle=orthogonalEdgeStyle;rounded=0;orthogonalLoop=1;jettySize=auto;html=1;entryX=0;entryY=0.5;entryDx=0;entryDy=0;" edge="1" parent="1" source="QejMok9exgGJCMUWyf_u-6" target="QejMok9exgGJCMUWyf_u-27">
          <mxGeometry relative="1" as="geometry" />
        </mxCell>
        <mxCell id="QejMok9exgGJCMUWyf_u-6" value="&lt;span style=&quot;font-size: 20px;&quot;&gt;E&lt;/span&gt;" style="rounded=0;whiteSpace=wrap;html=1;" vertex="1" parent="1">
          <mxGeometry x="290" y="350" width="60" height="40" as="geometry" />
        </mxCell>
        <mxCell id="QejMok9exgGJCMUWyf_u-55" style="edgeStyle=entityRelationEdgeStyle;rounded=0;orthogonalLoop=1;jettySize=auto;html=1;entryX=0;entryY=0.5;entryDx=0;entryDy=0;" edge="1" parent="1" source="QejMok9exgGJCMUWyf_u-7" target="QejMok9exgGJCMUWyf_u-29">
          <mxGeometry relative="1" as="geometry" />
        </mxCell>
        <mxCell id="QejMok9exgGJCMUWyf_u-7" value="&lt;font style=&quot;font-size: 20px;&quot;&gt;I&lt;/font&gt;" style="rounded=0;whiteSpace=wrap;html=1;" vertex="1" parent="1">
          <mxGeometry x="290" y="390" width="60" height="40" as="geometry" />
        </mxCell>
        <mxCell id="QejMok9exgGJCMUWyf_u-54" style="edgeStyle=entityRelationEdgeStyle;rounded=0;orthogonalLoop=1;jettySize=auto;html=1;entryX=0;entryY=0.5;entryDx=0;entryDy=0;" edge="1" parent="1" source="QejMok9exgGJCMUWyf_u-8" target="QejMok9exgGJCMUWyf_u-30">
          <mxGeometry relative="1" as="geometry" />
        </mxCell>
        <mxCell id="QejMok9exgGJCMUWyf_u-8" value="&lt;font style=&quot;font-size: 20px;&quot;&gt;C&lt;/font&gt;" style="rounded=0;whiteSpace=wrap;html=1;" vertex="1" parent="1">
          <mxGeometry x="290" y="430" width="60" height="40" as="geometry" />
        </mxCell>
        <mxCell id="QejMok9exgGJCMUWyf_u-60" style="edgeStyle=entityRelationEdgeStyle;rounded=0;orthogonalLoop=1;jettySize=auto;html=1;entryX=0;entryY=0.5;entryDx=0;entryDy=0;" edge="1" parent="1" source="QejMok9exgGJCMUWyf_u-9" target="QejMok9exgGJCMUWyf_u-28">
          <mxGeometry relative="1" as="geometry" />
        </mxCell>
        <mxCell id="QejMok9exgGJCMUWyf_u-9" value="&lt;font style=&quot;font-size: 20px;&quot;&gt;K&lt;/font&gt;" style="rounded=0;whiteSpace=wrap;html=1;" vertex="1" parent="1">
          <mxGeometry x="290" y="470" width="60" height="40" as="geometry" />
        </mxCell>
        <mxCell id="QejMok9exgGJCMUWyf_u-56" style="edgeStyle=entityRelationEdgeStyle;rounded=0;orthogonalLoop=1;jettySize=auto;html=1;entryX=0;entryY=0.5;entryDx=0;entryDy=0;" edge="1" parent="1" source="QejMok9exgGJCMUWyf_u-10" target="QejMok9exgGJCMUWyf_u-33">
          <mxGeometry relative="1" as="geometry" />
        </mxCell>
        <mxCell id="QejMok9exgGJCMUWyf_u-10" value="&lt;font style=&quot;font-size: 20px;&quot;&gt;U&lt;/font&gt;" style="rounded=0;whiteSpace=wrap;html=1;" vertex="1" parent="1">
          <mxGeometry x="290" y="510" width="60" height="40" as="geometry" />
        </mxCell>
        <mxCell id="QejMok9exgGJCMUWyf_u-59" style="edgeStyle=entityRelationEdgeStyle;rounded=0;orthogonalLoop=1;jettySize=auto;html=1;entryX=0;entryY=0.5;entryDx=0;entryDy=0;" edge="1" parent="1" source="QejMok9exgGJCMUWyf_u-11" target="QejMok9exgGJCMUWyf_u-31">
          <mxGeometry relative="1" as="geometry" />
        </mxCell>
        <mxCell id="QejMok9exgGJCMUWyf_u-11" value="&lt;font style=&quot;font-size: 20px;&quot;&gt;J&lt;/font&gt;" style="rounded=0;whiteSpace=wrap;html=1;" vertex="1" parent="1">
          <mxGeometry x="290" y="550" width="60" height="40" as="geometry" />
        </mxCell>
        <mxCell id="QejMok9exgGJCMUWyf_u-53" style="edgeStyle=entityRelationEdgeStyle;rounded=0;orthogonalLoop=1;jettySize=auto;html=1;entryX=0;entryY=0.5;entryDx=0;entryDy=0;" edge="1" parent="1" source="QejMok9exgGJCMUWyf_u-12" target="QejMok9exgGJCMUWyf_u-34">
          <mxGeometry relative="1" as="geometry" />
        </mxCell>
        <mxCell id="QejMok9exgGJCMUWyf_u-12" value="&lt;font style=&quot;font-size: 20px;&quot;&gt;L&lt;/font&gt;" style="rounded=0;whiteSpace=wrap;html=1;" vertex="1" parent="1">
          <mxGeometry x="290" y="590" width="60" height="40" as="geometry" />
        </mxCell>
        <mxCell id="QejMok9exgGJCMUWyf_u-58" style="edgeStyle=entityRelationEdgeStyle;rounded=0;orthogonalLoop=1;jettySize=auto;html=1;entryX=0;entryY=0.5;entryDx=0;entryDy=0;" edge="1" parent="1" source="QejMok9exgGJCMUWyf_u-13" target="QejMok9exgGJCMUWyf_u-32">
          <mxGeometry relative="1" as="geometry" />
        </mxCell>
        <mxCell id="QejMok9exgGJCMUWyf_u-13" value="&lt;font style=&quot;font-size: 20px;&quot;&gt;T&lt;/font&gt;" style="rounded=0;whiteSpace=wrap;html=1;" vertex="1" parent="1">
          <mxGeometry x="290" y="630" width="60" height="40" as="geometry" />
        </mxCell>
        <mxCell id="QejMok9exgGJCMUWyf_u-57" style="edgeStyle=entityRelationEdgeStyle;rounded=0;orthogonalLoop=1;jettySize=auto;html=1;entryX=0;entryY=0.5;entryDx=0;entryDy=0;" edge="1" parent="1" source="QejMok9exgGJCMUWyf_u-14" target="QejMok9exgGJCMUWyf_u-38">
          <mxGeometry relative="1" as="geometry" />
        </mxCell>
        <mxCell id="QejMok9exgGJCMUWyf_u-14" value="&lt;font style=&quot;font-size: 20px;&quot;&gt;X&lt;/font&gt;" style="rounded=0;whiteSpace=wrap;html=1;" vertex="1" parent="1">
          <mxGeometry x="760" y="190" width="60" height="40" as="geometry" />
        </mxCell>
        <mxCell id="QejMok9exgGJCMUWyf_u-61" style="edgeStyle=entityRelationEdgeStyle;rounded=0;orthogonalLoop=1;jettySize=auto;html=1;entryX=0;entryY=0.5;entryDx=0;entryDy=0;" edge="1" parent="1" source="QejMok9exgGJCMUWyf_u-15" target="QejMok9exgGJCMUWyf_u-35">
          <mxGeometry relative="1" as="geometry" />
        </mxCell>
        <mxCell id="QejMok9exgGJCMUWyf_u-15" value="&lt;font style=&quot;font-size: 20px;&quot;&gt;G&lt;/font&gt;" style="rounded=0;whiteSpace=wrap;html=1;" vertex="1" parent="1">
          <mxGeometry x="760" y="230" width="60" height="40" as="geometry" />
        </mxCell>
        <mxCell id="QejMok9exgGJCMUWyf_u-51" style="edgeStyle=entityRelationEdgeStyle;rounded=0;orthogonalLoop=1;jettySize=auto;html=1;entryX=0;entryY=0.5;entryDx=0;entryDy=0;" edge="1" parent="1" source="QejMok9exgGJCMUWyf_u-16" target="QejMok9exgGJCMUWyf_u-36">
          <mxGeometry relative="1" as="geometry" />
        </mxCell>
        <mxCell id="QejMok9exgGJCMUWyf_u-16" value="&lt;font style=&quot;font-size: 20px;&quot;&gt;D&lt;/font&gt;" style="rounded=0;whiteSpace=wrap;html=1;" vertex="1" parent="1">
          <mxGeometry x="760" y="270" width="60" height="40" as="geometry" />
        </mxCell>
        <mxCell id="QejMok9exgGJCMUWyf_u-65" style="edgeStyle=entityRelationEdgeStyle;rounded=0;orthogonalLoop=1;jettySize=auto;html=1;entryX=0;entryY=0.5;entryDx=0;entryDy=0;" edge="1" parent="1" source="QejMok9exgGJCMUWyf_u-17" target="QejMok9exgGJCMUWyf_u-37">
          <mxGeometry relative="1" as="geometry" />
        </mxCell>
        <mxCell id="QejMok9exgGJCMUWyf_u-17" value="&lt;span style=&quot;font-size: 20px;&quot;&gt;M&lt;/span&gt;" style="rounded=0;whiteSpace=wrap;html=1;" vertex="1" parent="1">
          <mxGeometry x="760" y="310" width="60" height="40" as="geometry" />
        </mxCell>
        <mxCell id="QejMok9exgGJCMUWyf_u-50" style="edgeStyle=entityRelationEdgeStyle;rounded=0;orthogonalLoop=1;jettySize=auto;html=1;entryX=0;entryY=0.5;entryDx=0;entryDy=0;" edge="1" parent="1" source="QejMok9exgGJCMUWyf_u-18" target="QejMok9exgGJCMUWyf_u-43">
          <mxGeometry relative="1" as="geometry" />
        </mxCell>
        <mxCell id="QejMok9exgGJCMUWyf_u-18" value="&lt;font style=&quot;font-size: 20px;&quot;&gt;H&lt;/font&gt;" style="rounded=0;whiteSpace=wrap;html=1;" vertex="1" parent="1">
          <mxGeometry x="760" y="350" width="60" height="40" as="geometry" />
        </mxCell>
        <mxCell id="QejMok9exgGJCMUWyf_u-63" style="edgeStyle=entityRelationEdgeStyle;rounded=0;orthogonalLoop=1;jettySize=auto;html=1;entryX=0;entryY=0.5;entryDx=0;entryDy=0;" edge="1" parent="1" source="QejMok9exgGJCMUWyf_u-19" target="QejMok9exgGJCMUWyf_u-41">
          <mxGeometry relative="1" as="geometry" />
        </mxCell>
        <mxCell id="QejMok9exgGJCMUWyf_u-19" value="&lt;font style=&quot;font-size: 20px;&quot;&gt;W&lt;/font&gt;" style="rounded=0;whiteSpace=wrap;html=1;" vertex="1" parent="1">
          <mxGeometry x="760" y="390" width="60" height="40" as="geometry" />
        </mxCell>
        <mxCell id="QejMok9exgGJCMUWyf_u-64" style="edgeStyle=entityRelationEdgeStyle;rounded=0;orthogonalLoop=1;jettySize=auto;html=1;entryX=0;entryY=0.5;entryDx=0;entryDy=0;" edge="1" parent="1" source="QejMok9exgGJCMUWyf_u-20" target="QejMok9exgGJCMUWyf_u-39">
          <mxGeometry relative="1" as="geometry" />
        </mxCell>
        <mxCell id="QejMok9exgGJCMUWyf_u-20" value="&lt;font style=&quot;font-size: 20px;&quot;&gt;Y&lt;/font&gt;" style="rounded=0;whiteSpace=wrap;html=1;" vertex="1" parent="1">
          <mxGeometry x="760" y="430" width="60" height="40" as="geometry" />
        </mxCell>
        <mxCell id="QejMok9exgGJCMUWyf_u-62" style="edgeStyle=entityRelationEdgeStyle;rounded=0;orthogonalLoop=1;jettySize=auto;html=1;entryX=0;entryY=0.5;entryDx=0;entryDy=0;" edge="1" parent="1" source="QejMok9exgGJCMUWyf_u-21" target="QejMok9exgGJCMUWyf_u-42">
          <mxGeometry relative="1" as="geometry" />
        </mxCell>
        <mxCell id="QejMok9exgGJCMUWyf_u-21" value="&lt;font style=&quot;font-size: 20px;&quot;&gt;Q&lt;/font&gt;&lt;span style=&quot;color: rgba(0, 0, 0, 0); font-family: monospace; font-size: 0px; text-align: start; text-wrap-mode: nowrap;&quot;&gt;%3CmxGraphModel%3E%3Croot%3E%3CmxCell%20id%3D%220%22%2F%3E%3CmxCell%20id%3D%221%22%20parent%3D%220%22%2F%3E%3CmxCell%20id%3D%222%22%20value%3D%22%26lt%3Bfont%20style%3D%26quot%3Bfont-size%3A%2020px%3B%26quot%3B%26gt%3BV%26lt%3B%2Ffont%26gt%3B%22%20style%3D%22rounded%3D0%3BwhiteSpace%3Dwrap%3Bhtml%3D1%3B%22%20vertex%3D%221%22%20parent%3D%221%22%3E%3CmxGeometry%20x%3D%22290%22%20y%3D%22670%22%20width%3D%2260%22%20height%3D%2240%22%20as%3D%22geometry%22%2F%3E%3C%2FmxCell%3E%3CmxCell%20id%3D%223%22%20value%3D%22%26lt%3Bfont%20style%3D%26quot%3Bfont-size%3A%2020px%3B%26quot%3B%26gt%3BV%26lt%3B%2Ffont%26gt%3B%22%20style%3D%22rounded%3D0%3BwhiteSpace%3Dwrap%3Bhtml%3D1%3B%22%20vertex%3D%221%22%20parent%3D%221%22%3E%3CmxGeometry%20x%3D%22290%22%20y%3D%22710%22%20width%3D%2260%22%20height%3D%2240%22%20as%3D%22geometry%22%2F%3E%3C%2FmxCell%3E%3CmxCell%20id%3D%224%22%20value%3D%22%26lt%3Bfont%20style%3D%26quot%3Bfont-size%3A%2020px%3B%26quot%3B%26gt%3BV%26lt%3B%2Ffont%26gt%3B%22%20style%3D%22rounded%3D0%3BwhiteSpace%3Dwrap%3Bhtml%3D1%3B%22%20vertex%3D%221%22%20parent%3D%221%22%3E%3CmxGeometry%20x%3D%22290%22%20y%3D%22750%22%20width%3D%2260%22%20height%3D%2240%22%20as%3D%22geometry%22%2F%3E%3C%2FmxCell%3E%3CmxCell%20id%3D%225%22%20value%3D%22%26lt%3Bfont%20style%3D%26quot%3Bfont-size%3A%2020px%3B%26quot%3B%26gt%3BV%26lt%3B%2Ffont%26gt%3B%22%20style%3D%22rounded%3D0%3BwhiteSpace%3Dwrap%3Bhtml%3D1%3B%22%20vertex%3D%221%22%20parent%3D%221%22%3E%3CmxGeometry%20x%3D%22290%22%20y%3D%22790%22%20width%3D%2260%22%20height%3D%2240%22%20as%3D%22geometry%22%2F%3E%3C%2FmxCell%3E%3C%2Froot%3E%3C%2FmxGraphModel%3E&lt;/span&gt;" style="rounded=0;whiteSpace=wrap;html=1;" vertex="1" parent="1">
          <mxGeometry x="760" y="470" width="60" height="40" as="geometry" />
        </mxCell>
        <mxCell id="QejMok9exgGJCMUWyf_u-66" style="edgeStyle=entityRelationEdgeStyle;rounded=0;orthogonalLoop=1;jettySize=auto;html=1;entryX=0;entryY=0.5;entryDx=0;entryDy=0;" edge="1" parent="1" source="QejMok9exgGJCMUWyf_u-22" target="QejMok9exgGJCMUWyf_u-40">
          <mxGeometry relative="1" as="geometry" />
        </mxCell>
        <mxCell id="QejMok9exgGJCMUWyf_u-22" value="&lt;span style=&quot;font-size: 20px;&quot;&gt;S&lt;/span&gt;" style="rounded=0;whiteSpace=wrap;html=1;" vertex="1" parent="1">
          <mxGeometry x="760" y="510" width="60" height="40" as="geometry" />
        </mxCell>
        <mxCell id="QejMok9exgGJCMUWyf_u-23" value="&lt;span style=&quot;font-size: 20px;&quot;&gt;E&lt;/span&gt;" style="rounded=0;whiteSpace=wrap;html=1;" vertex="1" parent="1">
          <mxGeometry x="520" y="190" width="60" height="40" as="geometry" />
        </mxCell>
        <mxCell id="QejMok9exgGJCMUWyf_u-24" value="&lt;font style=&quot;font-size: 20px;&quot;&gt;A&lt;/font&gt;" style="rounded=0;whiteSpace=wrap;html=1;" vertex="1" parent="1">
          <mxGeometry x="520" y="230" width="60" height="40" as="geometry" />
        </mxCell>
        <mxCell id="QejMok9exgGJCMUWyf_u-25" value="&lt;font style=&quot;font-size: 20px;&quot;&gt;I&lt;/font&gt;" style="rounded=0;whiteSpace=wrap;html=1;" vertex="1" parent="1">
          <mxGeometry x="520" y="270" width="60" height="40" as="geometry" />
        </mxCell>
        <mxCell id="QejMok9exgGJCMUWyf_u-26" value="&lt;font style=&quot;font-size: 20px;&quot;&gt;O&lt;/font&gt;" style="rounded=0;whiteSpace=wrap;html=1;" vertex="1" parent="1">
          <mxGeometry x="520" y="310" width="60" height="40" as="geometry" />
        </mxCell>
        <mxCell id="QejMok9exgGJCMUWyf_u-27" value="&lt;span style=&quot;font-size: 20px;&quot;&gt;N&lt;/span&gt;" style="rounded=0;whiteSpace=wrap;html=1;" vertex="1" parent="1">
          <mxGeometry x="520" y="350" width="60" height="40" as="geometry" />
        </mxCell>
        <mxCell id="QejMok9exgGJCMUWyf_u-28" value="&lt;font style=&quot;font-size: 20px;&quot;&gt;T&lt;/font&gt;" style="rounded=0;whiteSpace=wrap;html=1;" vertex="1" parent="1">
          <mxGeometry x="520" y="390" width="60" height="40" as="geometry" />
        </mxCell>
        <mxCell id="QejMok9exgGJCMUWyf_u-29" value="&lt;font style=&quot;font-size: 20px;&quot;&gt;R&lt;/font&gt;" style="rounded=0;whiteSpace=wrap;html=1;" vertex="1" parent="1">
          <mxGeometry x="520" y="430" width="60" height="40" as="geometry" />
        </mxCell>
        <mxCell id="QejMok9exgGJCMUWyf_u-30" value="&lt;font style=&quot;font-size: 20px;&quot;&gt;L&lt;/font&gt;" style="rounded=0;whiteSpace=wrap;html=1;" vertex="1" parent="1">
          <mxGeometry x="520" y="470" width="60" height="40" as="geometry" />
        </mxCell>
        <mxCell id="QejMok9exgGJCMUWyf_u-31" value="&lt;font style=&quot;font-size: 20px;&quot;&gt;S&lt;/font&gt;" style="rounded=0;whiteSpace=wrap;html=1;" vertex="1" parent="1">
          <mxGeometry x="520" y="510" width="60" height="40" as="geometry" />
        </mxCell>
        <mxCell id="QejMok9exgGJCMUWyf_u-32" value="&lt;font style=&quot;font-size: 20px;&quot;&gt;C&lt;/font&gt;" style="rounded=0;whiteSpace=wrap;html=1;" vertex="1" parent="1">
          <mxGeometry x="520" y="550" width="60" height="40" as="geometry" />
        </mxCell>
        <mxCell id="QejMok9exgGJCMUWyf_u-33" value="&lt;font style=&quot;font-size: 20px;&quot;&gt;D&lt;/font&gt;" style="rounded=0;whiteSpace=wrap;html=1;" vertex="1" parent="1">
          <mxGeometry x="520" y="590" width="60" height="40" as="geometry" />
        </mxCell>
        <mxCell id="QejMok9exgGJCMUWyf_u-34" value="&lt;font style=&quot;font-size: 20px;&quot;&gt;U&lt;/font&gt;" style="rounded=0;whiteSpace=wrap;html=1;" vertex="1" parent="1">
          <mxGeometry x="520" y="630" width="60" height="40" as="geometry" />
        </mxCell>
        <mxCell id="QejMok9exgGJCMUWyf_u-35" value="&lt;font style=&quot;font-size: 20px;&quot;&gt;P&lt;/font&gt;" style="rounded=0;whiteSpace=wrap;html=1;" vertex="1" parent="1">
          <mxGeometry x="990" y="190" width="60" height="40" as="geometry" />
        </mxCell>
        <mxCell id="QejMok9exgGJCMUWyf_u-36" value="&lt;font style=&quot;font-size: 20px;&quot;&gt;M&lt;/font&gt;" style="rounded=0;whiteSpace=wrap;html=1;" vertex="1" parent="1">
          <mxGeometry x="990" y="230" width="60" height="40" as="geometry" />
        </mxCell>
        <mxCell id="QejMok9exgGJCMUWyf_u-37" value="&lt;font style=&quot;font-size: 20px;&quot;&gt;V&lt;/font&gt;" style="rounded=0;whiteSpace=wrap;html=1;" vertex="1" parent="1">
          <mxGeometry x="990" y="270" width="60" height="40" as="geometry" />
        </mxCell>
        <mxCell id="QejMok9exgGJCMUWyf_u-38" value="&lt;span style=&quot;font-size: 20px;&quot;&gt;G&lt;/span&gt;" style="rounded=0;whiteSpace=wrap;html=1;" vertex="1" parent="1">
          <mxGeometry x="990" y="310" width="60" height="40" as="geometry" />
        </mxCell>
        <mxCell id="QejMok9exgGJCMUWyf_u-39" value="&lt;font style=&quot;font-size: 20px;&quot;&gt;H&lt;/font&gt;" style="rounded=0;whiteSpace=wrap;html=1;" vertex="1" parent="1">
          <mxGeometry x="990" y="350" width="60" height="40" as="geometry" />
        </mxCell>
        <mxCell id="QejMok9exgGJCMUWyf_u-40" value="&lt;font style=&quot;font-size: 20px;&quot;&gt;B&lt;/font&gt;" style="rounded=0;whiteSpace=wrap;html=1;" vertex="1" parent="1">
          <mxGeometry x="990" y="390" width="60" height="40" as="geometry" />
        </mxCell>
        <mxCell id="QejMok9exgGJCMUWyf_u-41" value="&lt;font style=&quot;font-size: 20px;&quot;&gt;F&lt;/font&gt;" style="rounded=0;whiteSpace=wrap;html=1;" vertex="1" parent="1">
          <mxGeometry x="990" y="430" width="60" height="40" as="geometry" />
        </mxCell>
        <mxCell id="QejMok9exgGJCMUWyf_u-42" value="&lt;span style=&quot;font-size: 20px;&quot;&gt;Z&lt;/span&gt;" style="rounded=0;whiteSpace=wrap;html=1;" vertex="1" parent="1">
          <mxGeometry x="990" y="470" width="60" height="40" as="geometry" />
        </mxCell>
        <mxCell id="QejMok9exgGJCMUWyf_u-43" value="&lt;span style=&quot;font-size: 20px;&quot;&gt;Q&lt;/span&gt;" style="rounded=0;whiteSpace=wrap;html=1;" vertex="1" parent="1">
          <mxGeometry x="990" y="510" width="60" height="40" as="geometry" />
        </mxCell>
        <mxCell id="QejMok9exgGJCMUWyf_u-67" value="&lt;span style=&quot;font-size: 22px;&quot;&gt;Messaggio Cifrato&lt;/span&gt;" style="text;html=1;align=center;verticalAlign=middle;resizable=0;points=[];autosize=1;strokeColor=none;fillColor=none;" vertex="1" parent="1">
          <mxGeometry x="220" y="130" width="200" height="40" as="geometry" />
        </mxCell>
        <mxCell id="QejMok9exgGJCMUWyf_u-68" value="&lt;span style=&quot;font-size: 22px;&quot;&gt;Tabella Freq.&lt;/span&gt;" style="text;html=1;align=center;verticalAlign=middle;resizable=0;points=[];autosize=1;strokeColor=none;fillColor=none;" vertex="1" parent="1">
          <mxGeometry x="475" y="130" width="150" height="40" as="geometry" />
        </mxCell>
        <mxCell id="QejMok9exgGJCMUWyf_u-70" value="&lt;span style=&quot;font-size: 22px;&quot;&gt;Messaggio Cifrato&lt;/span&gt;" style="text;html=1;align=center;verticalAlign=middle;resizable=0;points=[];autosize=1;strokeColor=none;fillColor=none;" vertex="1" parent="1">
          <mxGeometry x="690" y="130" width="200" height="40" as="geometry" />
        </mxCell>
        <mxCell id="QejMok9exgGJCMUWyf_u-71" value="&lt;span style=&quot;font-size: 22px;&quot;&gt;Tabella Freq.&lt;/span&gt;" style="text;html=1;align=center;verticalAlign=middle;resizable=0;points=[];autosize=1;strokeColor=none;fillColor=none;" vertex="1" parent="1">
          <mxGeometry x="945" y="130" width="150" height="40" as="geometry" />
        </mxCell>
      </root>
    </mxGraphModel>
  </diagram>
</mxfile>
